<?xml version="1.0" encoding="UTF-8"?>
<svg version="1.1" xmlns="http://www.w3.org/2000/svg" width="512" height="512">
<path d="M0 0 C0.6492041 0.21430664 1.2984082 0.42861328 1.96728516 0.64941406 C30.52264855 10.43128125 52.91432581 30.95479398 66.25195312 57.83154297 C68.50236905 62.58914134 70.26744847 67.40971637 71.8125 72.4375 C72.02205322 73.1073291 72.23160645 73.7771582 72.44750977 74.46728516 C73.29215877 77.25814771 73.99158057 79.92912017 74.3359375 82.828125 C74.75676222 85.65232645 75.03358625 86.89716041 77 89 C81.34855509 90.65024448 85.69758216 91.71986544 90.21875 92.77734375 C109.40073472 97.37842792 125.70118035 112.03524307 136.25 128.1875 C147.80036788 147.85118296 151.70579303 171.41132874 146.03515625 193.671875 C138.92516091 216.53118076 125.53470608 234.85473656 104.16186523 246.27075195 C92.58685014 252.19075548 80.38847187 256.11735373 67.28254509 256.13142776 C66.62919331 256.1334804 65.97584154 256.13553303 65.30269122 256.13764787 C63.11615285 256.14329663 60.9296779 256.14186325 58.74313354 256.14044189 C57.15845865 256.14302675 55.57378441 256.14604025 53.98911107 256.1494453 C49.63622533 256.15750442 45.2833561 256.15930426 40.93046379 256.16004276 C36.23499485 256.16189522 31.53953444 256.16944353 26.84407043 256.17617798 C16.57741968 256.18975418 6.31077283 256.19578493 -3.95588541 256.20018864 C-10.36794906 256.20295231 -16.78001119 256.20718989 -23.19207382 256.21169281 C-40.94949562 256.22388462 -58.70691622 256.23418406 -76.46434212 256.2375679 C-78.16879341 256.23789725 -78.16879341 256.23789725 -79.90767806 256.23823325 C-81.04667892 256.23845153 -82.18567979 256.23866981 -83.35919583 256.2388947 C-85.66719826 256.23933817 -87.97520069 256.23978473 -90.28320312 256.24023438 C-91.42804908 256.2404558 -92.57289503 256.24067723 -93.75243329 256.24090537 C-112.29966088 256.24485271 -130.84684917 256.26230516 -149.39406158 256.2855939 C-168.44180007 256.30931782 -187.48951884 256.32177023 -206.53727233 256.32293582 C-217.22960353 256.323852 -227.92188352 256.32959003 -238.61420059 256.34775543 C-247.71962998 256.36317045 -256.82499232 256.3682686 -265.93043227 256.36001733 C-270.57392213 256.35611579 -275.21727703 256.3570162 -279.8607502 256.37107468 C-284.11719015 256.38384322 -288.37339415 256.38259026 -292.62983392 256.37048396 C-294.16418051 256.36853207 -295.69854399 256.37158178 -297.2328669 256.38032833 C-315.1990647 256.47620711 -329.66534739 252.43985595 -343 240 C-354.06015478 228.33938148 -358.41375787 215.41353246 -358.36865234 199.58496094 C-358.04309272 187.49955231 -354.13288293 177.67802525 -347 168 C-346.5771875 167.40574219 -346.154375 166.81148437 -345.71875 166.19921875 C-339.63400473 158.24382544 -330.82337509 154.19992654 -322 150 C-319.99814558 149.00371746 -317.99762331 148.00473932 -316 147 C-316.03480469 145.84886719 -316.06960938 144.69773438 -316.10546875 143.51171875 C-316.68455639 115.94071275 -310.67998209 91.71988199 -291.296875 71.30078125 C-290.53890625 70.54152344 -289.7809375 69.78226562 -289 69 C-288.24203125 68.23042969 -287.4840625 67.46085937 -286.703125 66.66796875 C-269.06571427 49.75104049 -246.5650951 43.48113482 -222.69042969 43.57617188 C-200.68432789 44.04695867 -181.5676259 52.73890266 -165 67 C-164.39542969 67.51949219 -163.79085937 68.03898437 -163.16796875 68.57421875 C-155.15478113 76.02441895 -148.39195465 86.01828488 -144 96 C-143.67 96 -143.34 96 -143 96 C-142.84144531 94.87464844 -142.68289062 93.74929687 -142.51953125 92.58984375 C-138.11722969 62.96845773 -124.3731495 35.83572793 -100.09399414 17.56640625 C-89.61920462 9.96719839 -78.30389931 4.06159992 -66 0 C-65.36239746 -0.21172852 -64.72479492 -0.42345703 -64.06787109 -0.64160156 C-44.12986722 -6.90230345 -19.81557371 -6.5801526 0 0 Z " fill="#A1DAFF" transform="translate(361,4)"/>
<path d="M0 0 C1.61623452 1.33974028 3.22144588 2.69295087 4.8125 4.0625 C5.41707031 4.58199219 6.02164063 5.10148437 6.64453125 5.63671875 C16.78826553 15.06777849 24.7127879 27.70829094 28.125 41.0859375 C28.48319824 42.43534424 28.48319824 42.43534424 28.84863281 43.81201172 C29.31646161 45.61452857 29.74954107 47.42650399 30.14355469 49.24658203 C30.80058703 51.79565145 31.42310803 53.82326657 32.8125 56.0625 C35.68160081 57.75006216 38.57844294 58.37991764 41.8125 59.0625 C60.27435032 65.94851852 75.38883892 76.70796906 84.63671875 94.58984375 C91.41103823 109.69674022 93.89574156 127.92854154 88.96875 144.078125 C81.91222668 162.29158385 70.26879151 178.53048795 51.87037945 186.82247162 C39.2446893 191.94242955 27.72409785 193.79862517 14.19213867 193.67773438 C12.50468388 193.68124709 10.81723245 193.68691852 9.12979126 193.69454956 C4.60305089 193.70863666 0.07692972 193.69189956 -4.44975114 193.66826439 C-9.21533206 193.64795942 -13.98089214 193.65404477 -18.74650574 193.65637207 C-26.73922781 193.65631873 -34.73171161 193.63669795 -42.72436523 193.60449219 C-51.93755919 193.56754661 -61.1504423 193.5588279 -70.36370069 193.5657897 C-79.27032297 193.57211322 -88.17683982 193.5613103 -97.08344078 193.54182434 C-100.85546063 193.53369445 -104.62742626 193.53093256 -108.39945412 193.53251648 C-112.84434074 193.53340102 -117.28893594 193.51902759 -121.73374557 193.49328995 C-123.35577544 193.48618279 -124.97783642 193.48401792 -126.59987831 193.48740768 C-144.8060699 193.51817617 -159.58832601 189.74912713 -173.1875 177.0625 C-184.24765478 165.40188148 -188.60125787 152.47603246 -188.55615234 136.64746094 C-188.23059272 124.56205231 -184.32038293 114.74052525 -177.1875 105.0625 C-176.7646875 104.46824219 -176.341875 103.87398438 -175.90625 103.26171875 C-169.82150473 95.30632544 -161.01087509 91.26242654 -152.1875 87.0625 C-150.18564558 86.06621746 -148.18512331 85.06723932 -146.1875 84.0625 C-146.23970703 82.33580078 -146.23970703 82.33580078 -146.29296875 80.57421875 C-146.87205639 53.00321275 -140.86748209 28.78238199 -121.484375 8.36328125 C-120.34742187 7.22439453 -120.34742187 7.22439453 -119.1875 6.0625 C-118.05054687 4.90814453 -118.05054687 4.90814453 -116.890625 3.73046875 C-85.07224971 -26.78813631 -33.95815742 -26.53141108 0 0 Z " fill="#E5F6FF" transform="translate(191.1875,66.9375)"/>
<path d="M0 0 C0.65880157 0.00054382 1.31760315 0.00108765 1.99636841 0.00164795 C12.94884998 0.0431051 23.0324326 0.91979187 33.4375 4.375 C34.0867041 4.58930664 34.7359082 4.80361328 35.40478516 5.02441406 C63.96014855 14.80628125 86.35182581 35.32979398 99.68945312 62.20654297 C101.93986905 66.96414134 103.70494847 71.78471637 105.25 76.8125 C105.45955322 77.4823291 105.66910645 78.1521582 105.88500977 78.84228516 C106.72965877 81.63314771 107.42908057 84.30412017 107.7734375 87.203125 C108.19426222 90.02732645 108.47108625 91.27216041 110.4375 93.375 C114.78605509 95.02524448 119.13508216 96.09486544 123.65625 97.15234375 C142.83823472 101.75342792 159.13868035 116.41024307 169.6875 132.5625 C181.23786788 152.22618296 185.14329303 175.78632874 179.47265625 198.046875 C172.71709583 219.76663907 160.29537703 238.073441 140.00390625 249.26953125 C137.17036205 250.69464712 134.32732812 252.06842878 131.4375 253.375 C131.4375 252.715 131.4375 252.055 131.4375 251.375 C132.52546698 250.4146716 133.66091322 249.50803492 134.8125 248.625 C148.65726952 236.82128886 157.98201348 217.34787246 159.4375 199.375 C160.6912496 175.30942458 156.01410092 155.59704154 140.3125 136.8359375 C128.87397063 124.59839321 113.37553633 118.11199308 97.4543457 114.07348633 C91.63669499 112.57419499 91.63669499 112.57419499 89.4375 110.375 C88.83081055 108.59423828 88.83081055 108.59423828 88.32421875 106.4453125 C88.13118164 105.65616455 87.93814453 104.8670166 87.73925781 104.05395508 C87.53655273 103.2111499 87.33384766 102.36834473 87.125 101.5 C82.42091257 82.9789509 74.13643688 66.70141796 61.4375 52.375 C60.82648438 51.62089844 60.21546875 50.86679687 59.5859375 50.08984375 C46.96930833 34.86935707 28.95114451 24.65551428 10.4375 18.375 C9.53257812 18.04371094 8.62765625 17.71242188 7.6953125 17.37109375 C-14.69797485 10.52422532 -41.25096022 12.5149513 -62.375 22.51953125 C-63.096875 22.80183594 -63.81875 23.08414062 -64.5625 23.375 C-65.2225 23.045 -65.8825 22.715 -66.5625 22.375 C-47.49094226 6.8870827 -24.36982827 -0.03406852 0 0 Z " fill="#65CAFF" transform="translate(327.5625,-0.375)"/>
<path d="M0 0 C2.52301988 1.9712282 4.97588522 3.99728814 7.40234375 6.0859375 C8.00691406 6.60542969 8.61148438 7.12492187 9.234375 7.66015625 C19.37810928 17.09121599 27.30263165 29.73172844 30.71484375 43.109375 C31.07304199 44.45878174 31.07304199 44.45878174 31.43847656 45.83544922 C31.90630536 47.63796607 32.33938482 49.44994149 32.73339844 51.27001953 C33.39043078 53.81908895 34.01295178 55.84670407 35.40234375 58.0859375 C38.27144456 59.77349966 41.16828669 60.40335514 44.40234375 61.0859375 C62.86419407 67.97195602 77.97868267 78.73140656 87.2265625 96.61328125 C94.00088198 111.72017772 96.48558531 129.95197904 91.55859375 146.1015625 C84.10528236 165.33916353 72.27039295 180.04210934 53.43359375 189.37109375 C52.76328125 189.60699219 52.09296875 189.84289062 51.40234375 190.0859375 C50.74234375 189.7559375 50.08234375 189.4259375 49.40234375 189.0859375 C50.85640625 187.7865625 50.85640625 187.7865625 52.33984375 186.4609375 C62.10090856 176.58107677 66.99447335 165.32186273 70.40234375 152.0859375 C70.60472656 151.42851562 70.80710937 150.77109375 71.015625 150.09375 C74.10098549 134.07480764 69.95015583 116.72785524 61.546875 103.0703125 C51.62664953 88.89290445 38.90826403 79.41132732 22.40234375 74.0859375 C21.19578125 73.91771484 21.19578125 73.91771484 19.96484375 73.74609375 C17.16979859 73.26339681 15.64890726 72.85013747 13.40234375 71.0859375 C11.36270269 66.55399353 10.16494615 61.92083792 8.9453125 57.11474609 C3.18824013 35.60338306 -12.51798083 18.13868239 -31.35058594 7.05419922 C-52.22246166 -4.6122535 -75.70591237 -6.70450361 -98.59765625 -0.9140625 C-100.59439109 -0.56169753 -102.59368078 -0.22259684 -104.59765625 0.0859375 C-103.23863644 -3.99112192 -100.64850917 -4.90220475 -97.03515625 -6.7890625 C-96.37201416 -7.13912354 -95.70887207 -7.48918457 -95.02563477 -7.84985352 C-64.73135064 -23.26136528 -27.32575117 -20.13476402 0 0 Z " fill="#D1EDFF" transform="translate(188.59765625,64.9140625)"/>
<path d="M0 0 C2.458004 3.687006 2.25579013 5.50041823 2.26742554 9.90159607 C2.27195665 10.60779164 2.27648776 11.31398721 2.28115618 12.04158264 C2.29384152 14.41377414 2.29217719 16.78573727 2.29052734 19.15795898 C2.29650998 20.85632626 2.30331491 22.55469081 2.31088257 24.25305176 C2.32857567 28.87077851 2.33323931 33.48843117 2.33451414 38.10618854 C2.33641138 41.95822882 2.3437668 45.81025177 2.35085833 49.66228539 C2.36715207 58.7482545 2.37202634 67.83418397 2.37060547 76.92016602 C2.36940341 86.30024385 2.39051585 95.68009182 2.4220928 105.06011146 C2.4482213 113.10773728 2.45897422 121.15528786 2.45769465 129.20295578 C2.45718405 134.01201296 2.46292103 138.82086588 2.48405075 143.62988091 C2.50337584 148.15171598 2.50359712 152.67315073 2.48901749 157.19499969 C2.48692122 158.85587458 2.49167877 160.51677415 2.5037384 162.17760658 C2.51912216 164.44268559 2.50993015 166.70637235 2.49447632 168.97142029 C2.49556585 170.23959815 2.49665539 171.50777601 2.49777794 172.81438351 C1.91235673 176.56088835 0.9765967 177.73124542 -2 180 C-4 180.56640625 -4 180.56640625 -6 180.5625 C-6.99 180.59537109 -6.99 180.59537109 -8 180.62890625 C-11.16708381 179.63300685 -12.20464677 177.73237847 -14 175 C-14.50336456 171.72815704 -14.50336456 171.72815704 -14.50793457 167.94055176 C-14.51417453 167.24152001 -14.5204145 166.54248826 -14.52684355 165.82227373 C-14.54276558 163.48598777 -14.53017336 161.15074634 -14.51757812 158.81445312 C-14.52299963 157.13711438 -14.53012245 155.45978041 -14.53881836 153.78245544 C-14.55705136 149.23078928 -14.54998433 144.67948583 -14.53730202 140.12781334 C-14.52717422 135.364211 -14.53656708 130.60063969 -14.54284668 125.83703613 C-14.55012373 117.83742701 -14.54053388 109.8379656 -14.52148438 101.83837891 C-14.49971551 92.59003947 -14.50676685 83.34205276 -14.52879 74.09372187 C-14.54694236 66.15302591 -14.54950312 58.21243613 -14.53903532 50.27172613 C-14.53279949 45.52920087 -14.53196722 40.78684139 -14.54518127 36.04432678 C-14.55673678 31.58562269 -14.54871966 27.12737331 -14.52560425 22.66871834 C-14.52031554 21.03246376 -14.52183375 19.39617091 -14.53065491 17.75993156 C-14.54158825 15.5259207 -14.52787582 13.29336632 -14.50793457 11.05944824 C-14.50642647 9.8095385 -14.50491837 8.55962875 -14.50336456 7.27184296 C-13.90897422 3.40833725 -12.71552348 1.75710926 -10 -1 C-6.39293203 -2.80353399 -3.55614818 -1.54615138 0 0 Z " fill="#A2DAFF" transform="translate(185,332)"/>
<path d="M0 0 C0.79148437 -0.02578125 1.58296875 -0.0515625 2.3984375 -0.078125 C4.625 0.25 4.625 0.25 6.3515625 1.515625 C8.59451452 4.5704431 8.75026714 7.78369358 8.76544189 11.48703003 C8.77400711 12.74439468 8.77400711 12.74439468 8.78274536 14.02716064 C8.78386322 14.93842712 8.78498108 15.8496936 8.78613281 16.78857422 C8.79109772 17.75487762 8.79606262 18.72118103 8.80117798 19.71676636 C8.81578061 22.91274732 8.82259801 26.10867866 8.828125 29.3046875 C8.83387745 31.52662151 8.83963517 33.74855551 8.84539795 35.9704895 C8.85590214 40.62925447 8.86174881 45.2880022 8.86523438 49.94677734 C8.87072174 55.91439053 8.89475757 61.88177586 8.92320633 67.84931755 C8.94183419 72.43898178 8.94703837 77.0285911 8.94857025 81.61828995 C8.95159632 83.81830213 8.95962326 86.01831335 8.97275543 88.21828842 C8.98982076 91.29658086 8.98793447 94.37431609 8.98144531 97.45263672 C8.9906601 98.35985474 8.99987488 99.26707275 9.0093689 100.20178223 C8.97579496 105.28917432 8.49705837 108.85933489 5.625 113.25 C2.56806678 114.77846661 -0.00484547 114.48242445 -3.375 114.25 C-6.5600357 112.48984869 -7.20796972 111.75109084 -8.375 108.25 C-8.4692738 106.85258301 -8.50983397 105.45114977 -8.51544189 104.05056763 C-8.52400711 102.76785477 -8.52400711 102.76785477 -8.53274536 101.45922852 C-8.53386322 100.52409424 -8.53498108 99.58895996 -8.53613281 98.62548828 C-8.54109772 97.63821747 -8.54606262 96.65094666 -8.55117798 95.63375854 C-8.56580203 92.36260282 -8.57260171 89.09149557 -8.578125 85.8203125 C-8.58387585 83.54971312 -8.58963359 81.27911375 -8.59539795 79.0085144 C-8.60590835 74.24542006 -8.6117509 69.4823426 -8.61523438 64.71923828 C-8.62072193 58.61361669 -8.64475556 52.50821779 -8.67320633 46.40266609 C-8.69182144 41.71181585 -8.69703769 37.0210194 -8.69857025 32.33013535 C-8.70159939 30.07905738 -8.70963666 27.82798041 -8.72275543 25.57693863 C-8.73979352 22.42888641 -8.73794108 19.28138029 -8.73144531 16.13330078 C-8.7406601 15.20221497 -8.74987488 14.27112915 -8.7593689 13.31182861 C-8.71502256 6.45755302 -7.8476278 0.15238112 0 0 Z " fill="#A2DBFF" transform="translate(49.375,301.75)"/>
<path d="M0 0 C0.66 -0.00128906 1.32 -0.00257813 2 -0.00390625 C5.08488531 0.86974291 6.08441858 1.95412174 8 4.5625 C8.61231629 7.92962519 8.54606394 11.26922912 8.51757812 14.68359375 C8.5245874 15.71163116 8.53159668 16.73966858 8.53881836 17.79885864 C8.5564339 21.19951327 8.54476243 24.5993368 8.53125 28 C8.53394388 30.36124837 8.53782542 32.72249566 8.54284668 35.08374023 C8.54874658 40.03347328 8.5401626 44.98291768 8.52148438 49.93261719 C8.49869498 56.28170242 8.51181537 62.63011134 8.53577423 68.97917175 C8.55021867 73.85531727 8.54563234 78.73130207 8.53526306 83.60745239 C8.53259205 85.94866007 8.53587862 88.28988228 8.54518127 90.631073 C8.55532416 93.90157805 8.53987625 97.17098326 8.51757812 100.44140625 C8.52567505 101.41191925 8.53377197 102.38243225 8.54211426 103.38235474 C8.45959165 109.90569356 8.45959165 109.90569356 6.18249512 113.15991211 C2.91294615 115.26109884 0.80062266 115.16259832 -3 114.5625 C-5.83295232 112.54806496 -7.69790388 110.94961205 -8.45871162 107.45626831 C-8.64544486 104.80128756 -8.66397551 102.18878598 -8.63110352 99.52734375 C-8.63825882 98.52027374 -8.64541412 97.51320374 -8.65278625 96.47561646 C-8.66968147 93.14994817 -8.65026476 89.82562627 -8.62890625 86.5 C-8.62973487 84.18741748 -8.63219397 81.87483503 -8.63621521 79.56225586 C-8.63907379 74.71677919 -8.62436537 69.8717646 -8.59692383 65.02636719 C-8.56284161 58.81526406 -8.56885905 52.60498728 -8.5875864 46.3938446 C-8.59815477 41.61886712 -8.58921992 36.84408192 -8.57420158 32.06912231 C-8.56901815 29.77898733 -8.56950351 27.48883229 -8.57574654 25.19869995 C-8.58119653 21.99791276 -8.56082912 18.79830865 -8.53344727 15.59765625 C-8.53997314 14.65101105 -8.54649902 13.70436584 -8.55322266 12.72903442 C-8.49130769 8.47280295 -8.37245796 6.16517519 -6.09165955 2.47460938 C-3.83310087 0.40992766 -3.00929583 -0.09991803 0 0 Z " fill="#A2DBFF" transform="translate(230,301.4375)"/>
<path d="M0 0 C2.90717073 2.21863029 3.83981643 3.51944929 5 7 C5.105113 9.31904126 5.14870201 11.6410134 5.16113281 13.96240234 C5.16609772 14.66681961 5.17106262 15.37123688 5.17617798 16.09700012 C5.1907794 18.42665586 5.19759802 20.75624352 5.203125 23.0859375 C5.20887789 24.70634971 5.21463561 26.3267619 5.22039795 27.94717407 C5.23090203 31.34499427 5.23674865 34.74279085 5.24023438 38.140625 C5.24571945 42.49079547 5.26975007 46.840653 5.29820633 51.19072533 C5.31684528 54.53820707 5.32203896 57.8856136 5.32357025 61.23314285 C5.32659422 62.83669369 5.33461415 64.44024329 5.34775543 66.04374313 C5.3648435 68.28900615 5.36292941 70.53350663 5.35644531 72.77880859 C5.36009094 74.05549408 5.36373657 75.33217957 5.36749268 76.64755249 C4.97232353 80.25247825 4.14955545 82.11599042 2 85 C-0.58546056 86.96138387 -1.78795025 87.01298264 -5.0625 86.8125 C-8.06931151 85.98082873 -9.18936404 85.47771236 -11 83 C-12.17502806 79.47491582 -12.14147913 76.66715819 -12.16113281 72.94580078 C-12.16858017 71.87454453 -12.16858017 71.87454453 -12.17617798 70.78164673 C-12.19078048 68.41952551 -12.1975982 66.05747144 -12.203125 63.6953125 C-12.20887779 62.05248004 -12.21463551 60.40964761 -12.22039795 58.76681519 C-12.23090233 55.32191658 -12.23674875 51.87704127 -12.24023438 48.43212891 C-12.24571957 44.02142616 -12.26975033 39.61103205 -12.29820633 35.2004261 C-12.31684414 31.80662134 -12.3220389 28.41289077 -12.32357025 25.01903915 C-12.32659446 23.39315986 -12.33461522 21.7672818 -12.34775543 20.14145279 C-12.3648411 17.86506 -12.36292996 15.58941946 -12.35644531 13.31298828 C-12.36009094 12.0185379 -12.36373657 10.72408752 -12.36749268 9.39041138 C-11.97449667 5.76471158 -11.19300372 3.88086979 -9 1 C-5.90826248 -0.54586876 -3.40570448 -0.29359521 0 0 Z " fill="#A2DBFF" transform="translate(375,301)"/>
<path d="M0 0 C2.86675293 2.77892431 3.91677418 4.43294855 4.50120544 8.41491699 C4.50137161 9.72109985 4.50153778 11.02728271 4.50170898 12.37304688 C4.50711197 13.09726334 4.51251495 13.8214798 4.51808167 14.56764221 C4.53054705 16.95176582 4.51409386 19.33467657 4.49609375 21.71875 C4.49624879 23.38114485 4.49773861 25.04354006 4.50050354 26.70593262 C4.50188654 30.18611678 4.48934632 33.66588833 4.46655273 37.14599609 C4.43816818 41.60155788 4.44090663 46.05643431 4.45364285 50.51204681 C4.46060584 53.94364246 4.4528037 57.37508038 4.44038582 60.80665588 C4.43587733 62.44925837 4.43552925 64.09187782 4.43945122 65.73448181 C4.4423696 68.0323239 4.42582779 70.32922954 4.40405273 72.62695312 C4.39864975 73.93313599 4.39324677 75.23931885 4.38768005 76.58508301 C3.97569554 80.21408819 3.19617313 82.11475375 1 85 C-2.09173752 86.54586876 -4.59429552 86.29359521 -8 86 C-10.19520569 84.4591217 -10.19520569 84.4591217 -12 82 C-12.38975084 79.30942938 -12.53781679 77.02915838 -12.50170898 74.34155273 C-12.50711197 73.57525543 -12.51251495 72.80895813 -12.51808167 72.0194397 C-12.53057341 69.49042964 -12.51407741 66.96255693 -12.49609375 64.43359375 C-12.49624871 62.67529745 -12.49773724 60.9170008 -12.50050354 59.15870667 C-12.50188767 55.47584919 -12.48932601 51.79338111 -12.46655273 48.1105957 C-12.43814703 43.38690056 -12.44091081 38.66385141 -12.45364285 33.9401083 C-12.46059266 30.31043465 -12.45281912 26.68091071 -12.44038582 23.05125618 C-12.43586598 21.3093123 -12.43553916 19.56735238 -12.43945122 17.82540703 C-12.44235718 15.39295282 -12.42588764 12.96139389 -12.40405273 10.52905273 C-12.40855438 9.8074144 -12.41305603 9.08577606 -12.41769409 8.3422699 C-12.37475739 5.46789042 -12.34081172 3.48610696 -10.6622467 1.0919342 C-6.9250166 -1.36306202 -4.17517392 -1.19290683 0 0 Z " fill="#A1DBFF" transform="translate(467,326)"/>
<path d="M0 0 C2.90717073 2.21863029 3.83981643 3.51944929 5 7 C5.10263417 8.73722049 5.14845939 10.47805823 5.16113281 12.21826172 C5.17074036 13.28301727 5.1803479 14.34777283 5.19024658 15.4447937 C5.19449646 16.59480865 5.19874634 17.74482361 5.203125 18.9296875 C5.20882507 20.11217072 5.21452515 21.29465393 5.22039795 22.51296997 C5.22984965 25.01628728 5.2363826 27.51961703 5.24023438 30.02294922 C5.24994362 33.85275961 5.2809678 37.68203426 5.3125 41.51171875 C5.31902969 43.94270514 5.32428029 46.37369538 5.328125 48.8046875 C5.3404718 49.95065399 5.3528186 51.09662048 5.36553955 52.27731323 C5.36253845 53.34837311 5.35953735 54.41943298 5.35644531 55.52294922 C5.36009094 56.46210175 5.36373657 57.40125427 5.36749268 58.36886597 C4.92515261 61.53588421 3.86136542 63.42152794 2 66 C-1.17821535 67.58910767 -4.53939729 67.40420974 -8 67 C-10.67431489 65.18836733 -10.95920359 64.12238923 -12 61 C-12.10280185 59.23215222 -12.14847645 57.46073045 -12.16113281 55.68994141 C-12.17074036 54.6051651 -12.1803479 53.52038879 -12.19024658 52.40274048 C-12.19449646 51.23085175 -12.19874634 50.05896301 -12.203125 48.8515625 C-12.20882507 47.64688324 -12.21452515 46.44220398 -12.22039795 45.20101929 C-12.22985005 42.65062336 -12.23638276 40.10021522 -12.24023438 37.54980469 C-12.24994384 33.64757002 -12.28096779 29.7458611 -12.3125 25.84375 C-12.31902965 23.36719063 -12.32428027 20.89062749 -12.328125 18.4140625 C-12.3404718 17.24622223 -12.3528186 16.07838196 -12.36553955 14.87515259 C-12.36253845 13.78407196 -12.35953735 12.69299133 -12.35644531 11.56884766 C-12.36009094 10.61193024 -12.36373657 9.65501282 -12.36749268 8.6690979 C-11.92826462 5.47898621 -10.87766717 3.59433267 -9 1 C-5.90826248 -0.54586876 -3.40570448 -0.29359521 0 0 Z " fill="#A1DBFF" transform="translate(426,301)"/>
<path d="M0 0 C3.1850357 1.76015131 3.83296972 2.49890916 5 6 C5.10280185 7.76784778 5.14847645 9.53926955 5.16113281 11.31005859 C5.17074036 12.3948349 5.1803479 13.47961121 5.19024658 14.59725952 C5.19449646 15.76914825 5.19874634 16.94103699 5.203125 18.1484375 C5.20882507 19.35311676 5.21452515 20.55779602 5.22039795 21.79898071 C5.22985005 24.34937664 5.23638276 26.89978478 5.24023438 29.45019531 C5.24994384 33.35242998 5.28096779 37.2541389 5.3125 41.15625 C5.31902965 43.63280937 5.32428027 46.10937251 5.328125 48.5859375 C5.3404718 49.75377777 5.3528186 50.92161804 5.36553955 52.12484741 C5.36253845 53.21592804 5.35953735 54.30700867 5.35644531 55.43115234 C5.36009094 56.38806976 5.36373657 57.34498718 5.36749268 58.3309021 C4.8886647 61.80862786 3.49782407 64.50217593 1 67 C-6.20570265 67.59063136 -6.20570265 67.59063136 -9.4375 65.1875 C-11.89119974 61.75232037 -12.13056916 58.9931157 -12.16113281 54.8894043 C-12.17074036 53.84789719 -12.1803479 52.80639008 -12.19024658 51.73332214 C-12.19449646 50.60831802 -12.19874634 49.4833139 -12.203125 48.32421875 C-12.20882507 47.16630325 -12.21452515 46.00838776 -12.22039795 44.81538391 C-12.22984996 42.36334142 -12.23638272 39.9112862 -12.24023438 37.45922852 C-12.24993442 33.71282714 -12.28095452 29.96697559 -12.3125 26.22070312 C-12.31903066 23.83854492 -12.32428088 21.4563828 -12.328125 19.07421875 C-12.3404718 17.95528732 -12.3528186 16.8363559 -12.36553955 15.68351746 C-12.34955253 10.08497644 -12.31464981 5.76770918 -9 1 C-5.94306678 -0.52846661 -3.37015453 -0.23242445 0 0 Z " fill="#A2DBFF" transform="translate(141,301)"/>
<path d="M0 0 C2.05938216 1.57885966 2.84571211 2.69142423 4 5 C4.10972285 6.48450641 4.15903275 7.97371086 4.17700195 9.4621582 C4.18983719 10.38684402 4.20267242 11.31152985 4.21589661 12.26423645 C4.22328354 13.26629623 4.23067047 14.26835602 4.23828125 15.30078125 C4.246353 16.3293071 4.25442474 17.35783295 4.26274109 18.41752625 C4.27658767 20.59726268 4.28730725 22.77702086 4.29516602 24.95678711 C4.31237689 28.28866727 4.35625835 31.61955486 4.40039062 34.95117188 C4.41051756 37.06770103 4.41903366 39.18423863 4.42578125 41.30078125 C4.44328934 42.29676834 4.46079742 43.29275543 4.47883606 44.31892395 C4.4651265 48.69642765 4.42662055 51.2809785 2.15698242 55.10620117 C-0.63066229 57.55371221 -2.30107292 58 -6 58 C-9.00553125 56.77046449 -10.53089065 55.8387724 -12.12402344 52.99023438 C-13.37002144 48.73689447 -13.28548346 44.69140787 -13.265625 40.28125 C-13.26753845 39.34575317 -13.2694519 38.41025635 -13.27142334 37.44641113 C-13.27278143 35.47289765 -13.26911128 33.49937511 -13.26074219 31.52587891 C-13.25003741 28.51053745 -13.26065029 25.49579175 -13.2734375 22.48046875 C-13.27211584 20.55989452 -13.26955331 18.63932066 -13.265625 16.71875 C-13.26967346 15.81966919 -13.27372192 14.92058838 -13.27789307 13.9942627 C-13.23772369 8.61413283 -13.07294479 4.30327198 -9.3125 0.125 C-5.89855615 -1.53583755 -3.61242777 -0.91952707 0 0 Z " fill="#A1DAFF" transform="translate(91,322)"/>
<path d="M0 0 C2.81381695 1.96967186 3.33359964 3.72122701 4 7 C4.09708593 8.43310388 4.14782422 9.86982533 4.16113281 11.30615234 C4.17074036 12.1473764 4.1803479 12.98860046 4.19024658 13.85531616 C4.19449646 14.7564212 4.19874634 15.65752625 4.203125 16.5859375 C4.20882507 17.5204776 4.21452515 18.4550177 4.22039795 19.4178772 C4.22983396 21.39315666 4.23637637 23.36845177 4.24023438 25.34375 C4.24994218 28.35705136 4.28097972 31.36967105 4.3125 34.3828125 C4.31903037 36.30468346 4.32428071 38.22655929 4.328125 40.1484375 C4.3404718 41.04549408 4.3528186 41.94255066 4.36553955 42.86679077 C4.34740894 47.98698574 3.89643279 51.58307222 1 56 C-2.05693322 57.52846661 -4.62984547 57.23242445 -8 57 C-11.1850357 55.23984869 -11.83296972 54.50109084 -13 51 C-13.10590288 49.50796072 -13.15849178 48.01179173 -13.17700195 46.51611328 C-13.18983719 45.61152374 -13.20267242 44.7069342 -13.21589661 43.77493286 C-13.22328354 42.79990814 -13.23067047 41.82488342 -13.23828125 40.8203125 C-13.246353 39.81539764 -13.25442474 38.81048279 -13.26274109 37.77511597 C-13.27657241 35.64843467 -13.28729882 33.52173126 -13.29516602 31.39501953 C-13.31239701 28.14442967 -13.35629426 24.89485216 -13.40039062 21.64453125 C-13.4105162 19.57813248 -13.41903273 17.51172506 -13.42578125 15.4453125 C-13.44328934 14.47433624 -13.46079742 13.50335999 -13.47883606 12.50296021 C-13.4648314 8.14252142 -13.42499652 5.69066709 -11.09838867 1.90966797 C-7.25573622 -1.58739166 -5.01055355 -1.05485338 0 0 Z " fill="#A2DBFF" transform="translate(333,303)"/>
<path d="M0 0 C2.90717073 2.21863029 3.83981643 3.51944929 5 7 C5.26295488 11.62083436 5.23147146 16.24749783 5.25 20.875 C5.270625 22.15503906 5.29125 23.43507813 5.3125 24.75390625 C5.31765625 25.98753906 5.3228125 27.22117187 5.328125 28.4921875 C5.34214355 30.18384033 5.34214355 30.18384033 5.35644531 31.90966797 C4.95821714 35.36225164 4.06215774 37.22932854 2 40 C-1.17821535 41.58910767 -4.53939729 41.40420974 -8 41 C-10.67431489 39.18836733 -10.95920359 38.12238923 -12 35 C-12.22664835 30.88804956 -12.22825255 26.77595528 -12.24023438 22.65820312 C-12.24993322 20.63890274 -12.28096756 18.62062388 -12.3125 16.6015625 C-12.31765625 15.3228125 -12.3228125 14.0440625 -12.328125 12.7265625 C-12.3374707 11.55689941 -12.34681641 10.38723633 -12.35644531 9.18212891 C-11.96349341 5.67409121 -11.10240024 3.80682588 -9 1 C-5.90826248 -0.54586876 -3.40570448 -0.29359521 0 0 Z " fill="#A2DBFF" transform="translate(426,405)"/>
<path d="M0 0 C2.36497439 1.86708505 3.66030715 3.32061431 5 6 C5.23432625 10.08615281 5.22839964 14.17400386 5.24023438 18.26635742 C5.24991423 20.29452939 5.28092532 22.32167642 5.3125 24.34960938 C5.31765625 25.63287109 5.3228125 26.91613281 5.328125 28.23828125 C5.34214355 30.002323 5.34214355 30.002323 5.35644531 31.80200195 C4.93241472 35.60636957 3.72595178 38.27404822 1 41 C-6.20570265 41.59063136 -6.20570265 41.59063136 -9.4375 39.1875 C-13.31545038 33.75836947 -12.18418055 27.01161432 -12.1875 20.625 C-12.19974609 19.39265625 -12.21199219 18.1603125 -12.22460938 16.890625 C-12.22654297 15.70210938 -12.22847656 14.51359375 -12.23046875 13.2890625 C-12.23457764 12.20318848 -12.23868652 11.11731445 -12.24291992 9.99853516 C-11.99093085 6.88805302 -11.44888712 4.75665474 -10 2 C-6.2794164 -0.48038907 -4.40203429 -0.46337203 0 0 Z " fill="#A2DBFF" transform="translate(141,405)"/>
<path d="M0 0 C3.42708547 0.54111876 5.1612447 1.06066907 7.53491211 3.59399414 C10.02502165 8.36418973 9.22320798 14.32828015 9.125 19.5625 C9.13595703 20.83351563 9.14691406 22.10453125 9.15820312 23.4140625 C9.07504303 33.94767477 9.07504303 33.94767477 4.5625 38.5625 C2.5625 39.19140625 2.5625 39.19140625 0.5625 39.125 C-0.0975 39.12628906 -0.7575 39.12757813 -1.4375 39.12890625 C-4.38242834 38.29489334 -5.53469321 36.94612094 -7.4375 34.5625 C-7.95507812 31.41796875 -7.95507812 31.41796875 -7.96875 27.75 C-7.9725769 27.09926514 -7.97640381 26.44853027 -7.98034668 25.77807617 C-7.98306076 24.40639696 -7.97573453 23.03466556 -7.95898438 21.66308594 C-7.93756119 19.56848315 -7.95879637 17.47730916 -7.984375 15.3828125 C-7.98173163 14.04686746 -7.97660643 12.71092455 -7.96875 11.375 C-7.96423828 10.16457031 -7.95972656 8.95414062 -7.95507812 7.70703125 C-7.11794225 2.62103592 -5.0053115 0.81905097 0 0 Z " fill="#A2DBFF" transform="translate(279.4375,300.4375)"/>
<path d="M0 0 C2.58455285 1.89533875 2.96275506 2.88826517 4 6 C4.12276572 8.80362634 4.18513218 11.57150155 4.1875 14.375 C4.19974609 15.13039063 4.21199219 15.88578125 4.22460938 16.6640625 C4.23566198 20.878788 4.0311507 24.194265 2 28 C-0.42520546 30.42520546 -1.62067741 30.68564441 -5 31 C-8.13664481 30.25317981 -9.58066829 29.5153233 -11.62109375 27.0078125 C-13.55043715 22.79932973 -13.47603948 19.07568686 -13.4375 14.5 C-13.45748047 13.65824219 -13.47746094 12.81648438 -13.49804688 11.94921875 C-13.49476901 7.78633354 -13.35592686 5.56714423 -11.09765625 1.96875 C-7.28343691 -1.61107597 -5.03456466 -1.05990835 0 0 Z " fill="#A2DBFF" transform="translate(54,431)"/>
<path d="M0 0 C2.31055915 1.67031185 2.9244493 2.55340632 3.40405273 5.38842773 C3.43594103 8.40569277 3.45780082 11.42005965 3.4375 14.4375 C3.4674707 16.01241211 3.4674707 16.01241211 3.49804688 17.61914062 C3.49740234 18.63041016 3.49675781 19.64167969 3.49609375 20.68359375 C3.49887329 22.06889282 3.49887329 22.06889282 3.50170898 23.48217773 C2.85061079 26.74970846 1.55017157 27.92470213 -1 30 C-3.4375 30.9375 -3.4375 30.9375 -6 31 C-9.48634601 29.37844371 -10.84302194 28.23546708 -13 25 C-13.42918667 21.72292132 -13.32424322 18.42719451 -13.3125 15.125 C-13.32861328 14.22652344 -13.34472656 13.32804687 -13.36132812 12.40234375 C-13.3649355 7.5179561 -13.34573264 3.87070708 -10 0 C-6.22941703 -1.25686099 -3.86146303 -0.82745636 0 0 Z " fill="#A2DBFF" transform="translate(235,431)"/>
<path d="M0 0 C2.92732779 2.07370349 4.73593634 3.6956142 5.46533203 7.29858398 C5.63785509 10.04891048 5.63259704 12.74537591 5.5625 15.5 C5.57345703 16.43714844 5.58441406 17.37429688 5.59570312 18.33984375 C5.54988917 22.6463555 5.38203975 25.33205742 3.21484375 29.12109375 C0.87965227 31.10209393 0.00942235 31.66242223 -3 31.5625 C-3.66 31.56378906 -4.32 31.56507813 -5 31.56640625 C-7.89009057 30.74792357 -9.09258282 29.29109445 -11 27 C-11.80928355 23.20433052 -11.60308629 19.37240974 -11.5625 15.5 C-11.58634766 14.45457031 -11.61019531 13.40914063 -11.63476562 12.33203125 C-11.62012445 4.70886106 -11.62012445 4.70886106 -8.65234375 1.31640625 C-5.36572745 -0.31480095 -3.6204089 -0.67882667 0 0 Z " fill="#A2DAFF" transform="translate(332,394)"/>
<path d="M0 0 C0.66 -0.00128906 1.32 -0.00257813 2 -0.00390625 C5.16030213 0.89110119 6.13973058 1.80262545 8 4.5625 C8.62469284 8.21529291 8.6032956 11.80199915 8.5625 15.5 C8.58634766 16.48935547 8.61019531 17.47871094 8.63476562 18.49804688 C8.62506212 23.30774886 8.58862755 25.77211326 5.65234375 29.71484375 C3 31.5625 3 31.5625 0 32.1875 C-4.18367765 31.31590049 -5.42718065 29.97865614 -8 26.5625 C-8.71192485 23.04620382 -8.65348957 19.63814425 -8.5625 16.0625 C-8.57345703 15.12535156 -8.58441406 14.18820312 -8.59570312 13.22265625 C-8.54988917 8.9161445 -8.38203975 6.23044258 -6.21484375 2.44140625 C-3.87965227 0.46040607 -3.00942235 -0.09992223 0 0 Z " fill="#A1DBFF" transform="translate(269,459.4375)"/>
<path d="M0 0 C0.66 0.33 1.32 0.66 2 1 C-1.01887244 4.48331435 -3.56909529 5.79157144 -8 7 C-5.42215154 4.35247996 -3.08351902 2.05567935 0 0 Z " fill="#78CFFF" transform="translate(269,16)"/>
</svg>
